<svg xmlns="http://www.w3.org/2000/svg" viewBox="0 0 118.87 74.56"><defs><style>.cls-1,.cls-2{fill:#fff;}.cls-2{font-size:7px;font-family:GriffithGothic-Regular, GriffithGothic;letter-spacing:0em;}.cls-3{letter-spacing:-0.01em;}.cls-4{letter-spacing:0em;}.cls-5{letter-spacing:-0.01em;}.cls-6{letter-spacing:-0.01em;}.cls-7{letter-spacing:0em;}.cls-8{letter-spacing:-0.03em;}.cls-9{letter-spacing:0em;}.cls-10{letter-spacing:-0.03em;}.cls-11{letter-spacing:0em;}</style></defs><g id="Layer_2" data-name="Layer 2"><g id="Layer_1-2" data-name="Layer 1"><path class="cls-1" d="M2.55,61.53,0,62.43v.42H6.38v-.42l-2.55-.9V50.62H4l9.8,9.83L16.3,63H18V48.27l2.54-.9V47H14.14v.42l2.55.9v9.06h-.21L8.81,49.49,6.38,47H.18v.42l2.37.82Zm29.65-3L26.9,46.72H25.4L19.79,58.47l-1.62.66v.33H23v-.33l-1.59-.6,1.38-3.33H27l1.43,3.45-1.88.48v.33H34.1v-.33Zm-5.45-4.06H23.12l1.78-4.32H25Zm18.88-3.23L45,46.84H31.25l-.67,4.42.5.1,2.19-2.44A3.2,3.2,0,0,1,36,47.54l.4,0V58.65l-2.14.48v.33h7.85v-.33l-2.14-.48V47.51l.31,0A3.29,3.29,0,0,1,43,48.92l2.16,2.44ZM51,58.65v-11l2-.47v-.34H45.33v.34l2.06.47v11l-2.06.48v.33H53v-.33Zm17.76-5.51c0-3.56-2.38-6.6-7.56-6.6-4.95,0-7.7,3-7.7,6.6s2.4,6.62,7.56,6.62c4.94,0,7.7-3,7.7-6.62m-3.9,0c0,4-1.35,6-3.54,6-2.38,0-3.92-1.49-3.92-6s1.35-6,3.54-6c2.38,0,3.92,2,3.92,6m5.8,5.27-2,.72v.33h5.06v-.33l-2-.72V49.75h.17l7.77,7.81,2,2h1.33V47.89l2-.71v-.34H79.82v.34l2,.71v7.19h-.16l-6.09-6.22-1.93-2H68.74v.34l1.88.65ZM97.84,46.84H85v.34l2.07.47v11L85,59.13v.33H98.34l.46-4.1-.46-.08-1.92,2.06a3.82,3.82,0,0,1-2.9,1.31l-2.93.12V53.58h.81a2.24,2.24,0,0,1,2.45,1.62l.29.62h.5V50.49h-.5l-.29.65a2.24,2.24,0,0,1-2.45,1.63h-.81V47.51l2.17.08A3.47,3.47,0,0,1,95.87,49l1.86,2.18.45-.1Zm3,14.69-2.55.9v.42h6.39v-.42l-2.55-.9V50.62h.21l9.8,9.83L114.65,63h1.67V48.27l2.55-.9V47h-6.38v.42l2.55.9v9.06h-.21l-7.68-7.84L104.73,47h-6.2v.42l2.36.82Z"/><path class="cls-1" d="M42.35,0V37.12a42.59,42.59,0,0,1,17.09-3.35,42.58,42.58,0,0,1,17.08,3.35V0ZM70.46,9.05l-2.73,1V25.84H65.92l-2.64-2.73L52.75,12.53h-.22V24.26l2.74,1v.45H48.41v-.45l2.73-1V9.93L48.6,9.05V8.59h6.67l2.6,2.74,8.25,8.42h.22V10l-2.73-1V8.59h6.85Z"/><text class="cls-2" transform="translate(24.39 72.88)">Di<tspan class="cls-3" x="5.96" y="0">s</tspan><tspan x="8.83" y="0">tri</tspan><tspan class="cls-4" x="15.64" y="0">k</tspan><tspan class="cls-5" x="18.97" y="0">t</tspan><tspan x="21.49" y="0">e</tspan><tspan class="cls-6" x="24.75" y="0">n</tspan><tspan class="cls-7" x="28.26" y="0">es</tspan><tspan class="cls-8" x="34.42" y="0"> </tspan><tspan class="cls-6" x="35.99" y="0">n</tspan><tspan class="cls-7" x="39.49" y="0">æring</tspan><tspan class="cls-9" x="56.19" y="0">s</tspan><tspan class="cls-10" x="59.09" y="0">a</tspan><tspan class="cls-6" x="62.35" y="0">v</tspan><tspan class="cls-7" x="65.68" y="0">i</tspan><tspan class="cls-11" x="67.28" y="0">s</tspan></text></g></g></svg>