<?xml version="1.0" encoding="UTF-8"?>
<svg width="80px" height="80px" viewBox="0 0 80 80" version="1.1" xmlns="http://www.w3.org/2000/svg" xmlns:xlink="http://www.w3.org/1999/xlink">
    <g id="Page-1" stroke="none" stroke-width="1" fill="none" fill-rule="evenodd">
        <g id="Artboard" transform="translate(-1062.000000, -232.000000)" fill="#FFFFFE">
            <path d="M1085.37306,298.915029 L1085.37306,280.413147 L1101.10591,249.379129 L1101.10591,277.398756 L1099.51215,280.413147 L1102,284.540884 L1104.48785,280.413147 L1102.89409,277.398756 L1102.89409,249.379129 L1118.62672,280.737918 L1118.62672,298.915203 C1127.63646,293.327958 1133.6496,283.344364 1133.6496,271.982237 L1133.98189,271.982237 C1133.98189,289.624955 1119.63501,303.978509 1102,303.978509 C1084.36499,303.978509 1070.01789,289.624955 1070.01789,271.982237 L1070.35062,271.982237 C1070.35062,283.344246 1076.36354,293.327751 1085.37306,298.915029 Z M1062.21854,266.64291 L1062.67775,264.361174 C1062.84696,263.51975 1063.23033,262.865601 1063.79761,262.48798 C1064.30964,262.147638 1064.99199,262.033168 1065.82142,262.200269 L1065.89069,262.214084 C1067.04233,262.446095 1067.65235,263.108577 1067.91165,263.904389 L1071.3188,263.115594 L1070.97335,264.832872 L1067.99955,265.492942 L1067.86277,266.173186 L1070.59305,266.722952 L1070.28223,268.267208 L1062.21854,266.64291 Z M1066.6149,265.286149 C1066.78434,264.444725 1066.36305,263.91623 1065.59127,263.760971 C1064.73883,263.589266 1064.23139,263.966448 1064.06196,264.808092 L1063.946,265.384173 L1066.49194,265.896878 L1066.6149,265.286149 Z M1064.31162,258.372961 L1065.99064,254.438639 L1067.33035,255.010773 L1066.26485,257.507634 L1068.01489,258.255201 L1068.95611,256.050218 L1070.29582,256.622351 L1069.35483,258.827554 L1071.14827,259.593542 L1072.2324,257.05348 L1073.57189,257.625833 L1071.87446,261.603574 L1064.31162,258.372961 Z M1067.69684,251.294427 L1068.86734,249.631754 C1070.10513,247.873249 1072.06253,247.685096 1074.12799,249.1401 L1074.28164,249.248211 C1076.33746,250.696637 1076.82955,252.6104 1075.59176,254.369343 L1074.42149,256.032017 L1067.69684,251.294427 Z M1069.77524,250.832378 L1074.15582,253.918478 L1074.40636,253.563005 C1075.03545,252.668951 1074.81779,251.609989 1073.31916,250.554316 L1073.22316,250.486555 C1071.72453,249.430882 1070.65464,249.583071 1070.02556,250.476906 L1069.77524,250.832378 Z M1074.30619,243.169431 L1075.47559,242.09753 L1082.74449,246.641704 L1081.55756,247.729613 L1080.06967,246.766043 L1078.51033,248.19517 L1079.34852,249.754338 L1078.20521,250.802335 L1074.30619,243.169431 Z M1078.8481,245.988652 L1076.52882,244.448124 L1077.8431,246.909679 L1078.8481,245.988652 Z M1079.88226,238.684027 L1081.2463,237.897426 L1082.99437,240.932431 L1082.94637,236.917409 L1084.53443,236.001864 L1084.43842,240.073024 L1088.70174,243.095748 L1087.13428,243.999671 L1084.20629,241.929772 L1084.19095,243.010005 L1085.35268,245.026836 L1083.98842,245.813218 L1079.88226,238.684027 Z M1088.92597,235.86678 L1087.44532,236.36567 L1086.97274,234.9622 L1091.42632,233.461583 L1091.8989,234.865053 L1090.41802,235.363943 L1092.57073,241.757847 L1091.07867,242.260464 L1088.92597,235.86678 Z M1100.10507,232 L1099.56037,233.272991 C1100.08644,233.907842 1100.45819,234.833694 1100.59891,236.000329 L1100.63135,236.268743 C1100.93932,238.823936 1099.89881,240.499767 1098.14942,240.710726 C1097.55475,240.782435 1097.02058,240.66928 1096.53945,240.407664 L1096.3334,240.858748 L1095.19075,240.996464 L1095.73544,239.723692 C1095.20916,239.088621 1094.83872,238.174392 1094.6969,236.996135 L1094.66468,236.727941 C1094.35518,234.161125 1095.39701,232.496697 1097.14617,232.285738 C1097.72923,232.215345 1098.27524,232.327184 1098.75769,232.600422 L1098.96219,232.137716 L1100.10507,232 Z M1099.05404,236.435405 L1099.03014,236.236945 C1098.97557,235.781914 1098.89271,235.389381 1098.7818,235.059565 L1097.10234,238.990598 C1097.36909,239.242345 1097.66457,239.33708 1097.99095,239.297607 C1098.80722,239.199145 1099.2763,238.278556 1099.05404,236.435405 Z M1096.50218,237.938434 L1098.18187,234.007401 C1097.92804,233.765741 1097.61963,233.660919 1097.30465,233.698857 C1096.48837,233.797319 1096.01952,234.717908 1096.24178,236.561278 L1096.26567,236.759738 C1096.32025,237.21455 1096.40311,237.607083 1096.50218,237.938434 Z M1103.75859,232.087717 L1106.07284,232.326965 C1106.92616,232.415339 1107.61355,232.734629 1108.04317,233.263562 C1108.43114,233.740742 1108.61001,234.409144 1108.52299,235.251007 L1108.51575,235.3214 C1108.39498,236.490666 1107.79395,237.161043 1107.02721,237.495463 L1108.13742,240.812478 L1106.39637,240.632658 L1105.45515,237.734492 L1104.76557,237.663441 L1104.4793,240.434418 L1102.91338,240.27258 L1103.75859,232.087717 Z M1105.5288,236.336065 C1106.3819,236.424221 1106.86763,235.954497 1106.9483,235.170966 C1107.03773,234.305639 1106.61403,233.836572 1105.76071,233.748198 L1105.17634,233.687892 L1104.90936,236.271813 L1105.5288,236.336065 Z M1113.97258,233.897316 L1115.47712,234.400154 L1115.03172,242.96505 L1113.50504,242.454319 L1113.62538,240.68485 L1111.61932,240.014254 L1110.66297,241.504125 L1109.19196,241.012034 L1113.97258,233.897316 Z M1113.71196,239.239056 L1113.93334,236.462378 L1112.41915,238.806612 L1113.71196,239.239056 Z M1120.65251,236.618952 L1121.8949,237.380554 L1121.54243,242.431512 L1123.88802,238.603108 L1125.20056,239.407692 L1120.90217,246.423289 L1119.74,245.710808 L1120.11044,240.450426 L1117.66665,244.438913 L1116.35434,243.63433 L1120.65251,236.618952 Z M1122.71359,246.550917 L1124.2361,246.311011 C1124.25759,246.800691 1124.28564,247.540144 1124.78869,248.017324 C1125.20626,248.413585 1125.71237,248.375209 1126.03547,248.03399 C1126.28622,247.769524 1126.34365,247.435542 1126.05015,246.395658 C1125.65582,245.000959 1125.57209,244.030372 1126.36404,243.19443 L1126.38026,243.177544 C1127.33441,242.170993 1128.71401,242.184151 1129.77995,243.195088 C1130.29133,243.680382 1130.73586,244.45843 1130.73629,245.414545 L1129.20479,245.630109 C1129.20961,245.197665 1129.14407,244.600532 1128.72651,244.204271 C1128.38522,243.880815 1127.93544,243.842877 1127.63646,244.158439 C1127.3697,244.44001 1127.31183,244.773992 1127.65399,246.070228 C1128.0047,247.391245 1128.00317,248.264466 1127.25111,249.057646 L1127.23489,249.074532 C1126.26518,250.098188 1124.80908,250.045339 1123.80342,249.090979 C1123.20633,248.524986 1122.74383,247.697377 1122.71359,246.550917 Z M1133.00473,246.631836 L1133.9648,247.982676 L1130.20628,252.22927 L1135.44962,250.071215 L1136.3825,251.383679 L1128.40407,254.420438 L1127.51919,253.174858 L1133.00473,246.631836 Z M1138.3855,255.260547 L1139.02795,256.711603 L1132.40348,262.155314 L1131.7516,260.682986 L1133.13909,259.579069 L1132.28227,257.644472 L1130.5377,257.942052 L1129.90949,256.523451 L1138.3855,255.260547 Z M1134.26509,258.668567 L1136.46492,256.9605 L1133.71316,257.421672 L1134.26509,258.668567 Z M1140.84748,261.993257 L1141.30296,264.275212 C1141.47087,265.116417 1141.36872,265.867931 1140.99083,266.434582 C1140.64977,266.945972 1140.06452,267.314602 1139.23509,267.480168 L1139.16583,267.494202 C1138.01396,267.724021 1137.19637,267.347935 1136.6508,266.71418 L1133.81158,268.754914 L1133.4692,267.037636 L1135.95771,265.282421 L1135.82224,264.602396 L1133.09219,265.147556 L1132.78378,263.6033 L1140.84748,261.993257 Z M1137.31495,264.939667 C1137.48264,265.780872 1138.07468,266.106083 1138.84624,265.952139 C1139.6989,265.781969 1140.02178,265.237905 1139.85366,264.3967 L1139.7388,263.820619 L1137.19308,264.328719 L1137.31495,264.939667 Z M1102,312 C1079.94385,312 1062,294.048299 1062,271.982237 L1063.33029,271.982237 C1063.33029,293.314109 1080.67749,310.669115 1102,310.669115 C1123.32251,310.669115 1140.66971,293.314109 1140.66971,271.982237 L1142,271.982237 C1142,294.048299 1124.05593,312 1102,312 Z" id="nored-segl"></path>
        </g>
    </g>
</svg>