<svg xmlns="http://www.w3.org/2000/svg" viewBox="0 0 696.38 132.75"><defs><style>.cls-1{isolation:isolate;}.cls-2{mix-blend-mode:soft-light;opacity:0.84;}</style></defs><g class="cls-1"><path class="cls-2" d="M76.28,26.18l-19.45,75H51.59L17.71,11.26Q15.4,4.93,13,3.78T0,2.62V1.23H52.51V2.62q-9.39,0-13,1T35.88,7.56a9.66,9.66,0,0,0,.93,3.7L61,75.92,75,22.33l-3.28-11Q69.9,5.1,67.26,3.86T53.74,2.62V1.23h52.77V2.62q-9.36,0-13,1t-3.6,4.25a9.87,9.87,0,0,0,.61,3.39l19.87,64.82,17-48q2.6-7.56,2.6-12.35Q130,2.62,111.5,2.62V1.23h39.73V2.62q-10.93,0-16.17,11.26-.78,1.69-5.7,15.11L104.1,101.18H99Z"/><path class="cls-2" d="M180,62.19v31a10.82,10.82,0,0,0,.46,4,3.1,3.1,0,0,0,1.46.93,17.62,17.62,0,0,0,4.16.78c2,.2,3.77.31,5.31.31v1.38H150.3V99.18c3,0,5.68-.11,8.09-.31a25.41,25.41,0,0,0,6.24-1.24c.61-.52.92-2,.92-4.49V12.21c0-1.35,0-2.48-.08-3.41a3.76,3.76,0,0,0-.69-2.17,4.65,4.65,0,0,0-2-1.85Q160,4,150.46,4V2.62L180,0V54.52a31,31,0,0,1,4.46-11.86Q189,35.58,195.12,35a24,24,0,0,0,2.69-.16c1-.1,1.67-.15,2.08-.15q10.79,0,16.17,5.87a16.91,16.91,0,0,1,4.31,11.73V93.16a10.76,10.76,0,0,0,.47,4,3.21,3.21,0,0,0,1.54.93,20.75,20.75,0,0,0,4.46.77c2.16.2,4.31.31,6.47.31v1.38H193.58V99.18c1.64,0,3.54-.11,5.7-.31A22.23,22.23,0,0,0,205,97.63c.62-.52.93-2,.93-4.49V51.36q0-6.66-1.39-9.91-2.16-5.1-8.16-5.11-6.47,0-11.09,8.51A50.5,50.5,0,0,0,180,62.19Z"/><path class="cls-2" d="M267.5,98.09a3.14,3.14,0,0,1-1.39-.93,10.82,10.82,0,0,1-.46-4V34.8l-29.72,2.47v1.38q9.85,0,12.63.78a4.69,4.69,0,0,1,2,1.86c.41.52.61,1.76.61,3.73v48.1c0,2.49-.3,4-.92,4.5A25.38,25.38,0,0,1,244,98.87c-2.41.2-5.11.31-8.08.31v1.38h45V99.18Q270.73,99.18,267.5,98.09Z"/><path class="cls-2" d="M257.56,17.25a8.24,8.24,0,0,0,6.11-2.47,8.37,8.37,0,0,0,2.44-6.16,8.41,8.41,0,0,0-2.44-6.16,8.81,8.81,0,0,0-12.21,0A8.41,8.41,0,0,0,249,8.62a8.37,8.37,0,0,0,2.44,6.16A8.22,8.22,0,0,0,257.56,17.25Z"/><path class="cls-2" d="M322.47,39.58c4-3,6.11-4.57,6.32-4.78V57.9l-1.23-.3a32.15,32.15,0,0,0-7.7-15.1q-6-6.3-13.25-6.31a17.22,17.22,0,0,0-9.08,2.16q-4.78,2.92-4.78,9.7,0,5.54,5.22,8.62,3.67,2.16,14.73,4.78t15.5,6.16q6.29,4.92,6.29,15.7,0,10-6.78,14.79-5.38,3.84-13.55,3.85-6.78,0-9.7-.93-4.32-1.38-9.4-6.62-6.17,7.25-6.47,7.55V74.69h1.08A98.86,98.86,0,0,0,294,87.93,24,24,0,0,0,299,95.48a16.2,16.2,0,0,0,6.73,4.23,39.27,39.27,0,0,0,9.51.85,12.31,12.31,0,0,0,7.89-2.46,10,10,0,0,0,3.71-8.32q0-6.93-5-10.32-3.87-2.61-13.68-4.62t-15.23-6.46a17.69,17.69,0,0,1-6.49-14.33,18.86,18.86,0,0,1,5.46-13.63,17.93,17.93,0,0,1,13.33-5.62,25.33,25.33,0,0,1,10.47,2A56.38,56.38,0,0,0,322.47,39.58Z"/><path class="cls-2" d="M367.9,72.84V93.13a10.86,10.86,0,0,0,.47,4,3.18,3.18,0,0,0,1.46.93,17.29,17.29,0,0,0,4.08.78c1.95.2,3.54.31,4.77.31v1.38H339V99.18q9.24,0,12.48-1.08l1.07-.47c.62-.51.93-2,.93-4.48V10.65a7.9,7.9,0,0,0-.93-4.41,3.2,3.2,0,0,0-1.69-1.46Q348.35,4,339.11,4V2.62L367.9,0V70.07l19.41-19.43q4.62-4.5,4.62-8.08,0-3-3.24-4.58c-2.15-1.09-5.44-1.64-9.85-1.64V34.8H414.1v1.54q-5.85,0-9.16,1.71t-9,7l-9.55,9.44L406.1,93.76a8.41,8.41,0,0,0,4.23,4.41q2.54,1,8.39,1v1.38H381.15V99.18c3.39,0,6-.08,7.85-.24s2.77-.9,2.77-2.24a9.78,9.78,0,0,0-1.23-3.41L376.07,64.53Z"/><path class="cls-2" d="M450.6,115.32q-3.24,9.41-6,13.11a9.93,9.93,0,0,1-8.31,4.32c-4.31,0-7.5-.44-9.55-1.31A6.46,6.46,0,0,1,422.8,127a20.66,20.66,0,0,1-.84-5,8.14,8.14,0,0,1,7.93-7.86,7.2,7.2,0,0,1,5.21,2.24,8,8,0,0,1,2.26,5.93q0,6.61-6.23,7.39a3.86,3.86,0,0,0,2.23,1.37,16.91,16.91,0,0,0,2.39.17,8.35,8.35,0,0,0,6.77-3.18c1.75-2.11,3.59-6,5.55-11.69L453,102.41,430.73,42.06c-.92-2.37-1.49-3.76-1.69-4.17-.62-1-2.41-1.55-5.39-1.55h-3.54V34.8h35.26v1.54q-3.54,0-7.16.08c-2.41,0-3.62.7-3.62,1.93l.93,3.09,14.89,39.72,10.36-30.29a28.22,28.22,0,0,0,1.85-8.34q0-6.18-10.32-6.19V34.8H488v1.54c-3.9,0-6.93,1-9.08,2.86s-4.57,6.66-7.24,14.26Z"/><path class="cls-2" d="M544.08,44.81A30.84,30.84,0,0,1,550.55,55a35.8,35.8,0,0,1,2.3,13.24q0,14.94-10.31,24.8-9.4,8.92-21.1,8.93a30.29,30.29,0,0,1-20.33-7.86L494.34,102H490l8.78-10a30.51,30.51,0,0,1-6.47-10.32A37,37,0,0,1,490,68.22q0-14.92,10.32-24.64,9.39-8.78,21.1-8.78a29.42,29.42,0,0,1,10.47,1.93,36.27,36.27,0,0,1,9.86,5.77l6.62-7.7h4.31Zm-8.63,4.93q-1.38-7.08-4.62-10.32c-2.15-2.15-5.29-3.23-9.39-3.23q-8.31,0-11.86,7.7T506,68.22v6.62a68.14,68.14,0,0,0,.62,7.86Zm.77,4L507.43,86.86q1.38,6.78,4.69,10.24t9.32,3.46q8.31,0,11.86-7.85t3.54-24.49V64.53A78.22,78.22,0,0,0,536.22,53.75Z"/><path class="cls-2" d="M588.89,115.32q-3.23,9.41-6,13.11a10,10,0,0,1-8.32,4.32c-4.31,0-7.5-.44-9.55-1.31a6.48,6.48,0,0,1-3.93-4.47,20.66,20.66,0,0,1-.84-5,8.14,8.14,0,0,1,7.93-7.86,7.19,7.19,0,0,1,5.21,2.24,8,8,0,0,1,2.26,5.93q0,6.61-6.22,7.39a3.83,3.83,0,0,0,2.23,1.37,16.77,16.77,0,0,0,2.38.17,8.35,8.35,0,0,0,6.77-3.18q2.63-3.16,5.55-11.69l4.92-13.93L569,42.06c-.93-2.37-1.49-3.76-1.7-4.17q-.92-1.55-5.39-1.55H558.4V34.8h35.27v1.54c-2.37,0-4.75,0-7.17.08s-3.61.7-3.61,1.93l.92,3.09L598.7,81.16l10.36-30.29a27.9,27.9,0,0,0,1.85-8.34q0-6.18-10.31-6.19V34.8h25.71v1.54c-3.9,0-6.93,1-9.08,2.86s-4.57,6.66-7.24,14.26Z"/><path class="cls-2" d="M667.74,55.84v-9c0-4.13-.66-6.91-2-8.36s-4.13-2.17-8.46-2.17a20.12,20.12,0,0,0-9.29,2,10,10,0,0,0-5.23,5.5,6.62,6.62,0,0,1,1.54-.15,5.83,5.83,0,0,1,4.77,2.31A8.1,8.1,0,0,1,651,51.28a7.24,7.24,0,0,1-2.33,5.55A7.76,7.76,0,0,1,643.18,59a6.11,6.11,0,0,1-3.58-1.08c-3-1.94-4.51-4.41-4.51-7.39a16,16,0,0,1,.92-4.93q2.16-6,10.78-8.77a40,40,0,0,1,12.48-2q11.38,0,17.25,4.31,5.24,3.84,5.23,9.67v34c0,6.14.16,9.93.46,11.37q1.08,5.22,5.55,5.22c2.67,0,4.46-1.38,5.39-4.13s1.38-6.74,1.38-12c0-1.42,0-2.85-.07-4.28s-.08-2.91-.08-4.44V73.15h1.85v6.78c0,2.15,0,4.21.15,6.16q0,8.93-2.17,12-2.78,3.84-11.3,3.85-6.66,0-9.91-2.29-3.87-2.75-5.11-9.31-3.23,7.49-9.7,10.07A28.58,28.58,0,0,1,647.87,102a20.22,20.22,0,0,1-11.24-3.09Q630,94.71,630,86.22a18,18,0,0,1,6.44-14,26.68,26.68,0,0,1,15.64-6.32q9.21-.78,12.43-2.47C666.66,62.27,667.74,59.75,667.74,55.84Zm-.46,27.86V63.11a8,8,0,0,1-5.47,3q-3.62.54-7,1a11.55,11.55,0,0,0-7.08,5q-3.09,4.64-3.08,13,0,9,1.77,12.15a6,6,0,0,0,5.62,3.17q5.85,0,10.55-4.87A16.45,16.45,0,0,0,667.28,83.7Z"/></g></svg>